<svg width="256" height="256" viewBox="0 0 256 256" fill="none" xmlns="http://www.w3.org/2000/svg">
  <rect width="256" height="256" rx="64" fill="#0B0F1A"/>
  <rect x="18" y="18" width="220" height="220" rx="52" fill="url(#paint0_linear)" fill-opacity="0.16"/>
  <rect x="28" y="28" width="200" height="200" rx="44" fill="url(#paint1_linear)"/>
  <path d="M73 78H95V126C95 136.493 100.149 142 111.5 142C122.851 142 128 136.493 128 126V78H150V127C150 150.352 135.942 164 111.5 164C87.0577 164 73 150.352 73 127V78Z" fill="white"/>
  <path d="M79 184L98.5 160H116L96.5 184H79Z" fill="#8BE9F7"/>
  <path d="M120 184L139.5 160H157L137.5 184H120Z" fill="#5FCBFF"/>
  <path d="M161 184L180.5 160H198L178.5 184H161Z" fill="#34D399"/>
  <defs>
    <linearGradient id="paint0_linear" x1="28" y1="32" x2="230" y2="220" gradientUnits="userSpaceOnUse">
      <stop stop-color="#22D3EE"/>
      <stop offset="1" stop-color="#3B82F6"/>
    </linearGradient>
    <linearGradient id="paint1_linear" x1="28" y1="28" x2="228" y2="228" gradientUnits="userSpaceOnUse">
      <stop stop-color="#2563EB"/>
      <stop offset="1" stop-color="#06B6D4"/>
    </linearGradient>
  </defs>
</svg>
